# xmcd
#
# Track frame offsets:
#	150
#	17150
#	32787
#	45919
#	59780
#	71331
#	84739
#	96416
#	108218
#	121605
#	133921
#	150216
#	164224
#	179024
#	190955
#	205244
#	217748
#	231789
#	245245
#	258845
#
# Disc length: 3628 seconds
#
# Revision: 0
# Processed by: cddbd v1.5.1PL0 Copyright (c) Steve Scherf et al.
# Submitted via: audiograbber 1.81.01
#
DISCID=1c0e2a14
DTITLE=Bumble Bee Slim - Baby So Long
DYEAR=2002
DGENRE=Blues
TTITLE0=Chain Gang Bound
TTITLE1=No Woman No Nickel
TTITLE2=Greasy Greens
TTITLE3=M and O Blues Part 1
TTITLE4=M and O Blues Part 2
TTITLE5=Baby So Long
TTITLE6=Cruel Hearted Woman Part 1
TTITLE7=Cruel Hearted Woman Part 2
TTITLE8=The Longest Day You Live Part 1
TTITLE9=The Longest Day You Live Part 2
TTITLE10=Squalling Panther Blues
TTITLE11=Dead And Gone Mother
TTITLE12=I Done Lost My Baby
TTITLE13=You Don't Mean Me No Good
TTITLE14=Everybody's Fishing
TTITLE15=Back In Jail Again
TTITLE16=New Policy Dream Blues
TTITLE17=Must I Keep On Crying
TTITLE18=Slave Man Blues
TTITLE19=12 O'clock Midnight
EXTD=Walle upped this
EXTT0=
EXTT1=
EXTT2=
EXTT3=
EXTT4=
EXTT5=
EXTT6=
EXTT7=
EXTT8=
EXTT9=
EXTT10=
EXTT11=
EXTT12=
EXTT13=
EXTT14=
EXTT15=
EXTT16=
EXTT17=
EXTT18=
EXTT19=
PLAYORDER=
